<svg width="19" height="11" viewBox="0 0 19 11" fill="none" xmlns="http://www.w3.org/2000/svg">
<path d="M17.7959 2.79586L10.2959 10.2959C10.1914 10.4007 10.0672 10.484 9.93044 10.5407C9.7937 10.5975 9.64709 10.6267 9.49902 10.6267C9.35096 10.6267 9.20435 10.5975 9.0676 10.5407C8.93085 10.484 8.80666 10.4007 8.70215 10.2959L1.20215 2.79586C0.990802 2.58451 0.87207 2.29787 0.87207 1.99898C0.87207 1.7001 0.990802 1.41345 1.20215 1.20211C1.41349 0.990763 1.70014 0.872031 1.99902 0.872031C2.29791 0.872031 2.58455 0.990763 2.7959 1.20211L9.49996 7.90617L16.204 1.20117C16.4154 0.989826 16.702 0.871094 17.0009 0.871094C17.2998 0.871094 17.5864 0.989826 17.7978 1.20117C18.0091 1.41252 18.1278 1.69916 18.1278 1.99805C18.1278 2.29693 18.0091 2.58358 17.7978 2.79492L17.7959 2.79586Z" fill="#1A1A1A"/>
</svg>
