<svg width="25" height="24" viewBox="0 0 25 24" fill="none" xmlns="http://www.w3.org/2000/svg">
<path d="M22.2961 20.2042L17.8439 15.7501C19.1788 14.0106 19.802 11.8284 19.5871 9.64619C19.3723 7.46401 18.3354 5.44527 16.6868 3.99948C15.0383 2.55369 12.9015 1.7891 10.71 1.86083C8.51841 1.93255 6.4362 2.83521 4.8857 4.3857C3.33521 5.9362 2.43255 8.01841 2.36083 10.21C2.2891 12.4015 3.05369 14.5383 4.49948 16.1868C5.94527 17.8354 7.96401 18.8723 10.1462 19.0871C12.3284 19.302 14.5106 18.6788 16.2501 17.3439L20.7061 21.8007C20.8107 21.9054 20.9349 21.9884 21.0717 22.045C21.2084 22.1017 21.3549 22.1308 21.5029 22.1308C21.6509 22.1308 21.7975 22.1017 21.9342 22.045C22.0709 21.9884 22.1952 21.9054 22.2998 21.8007C22.4044 21.6961 22.4875 21.5719 22.5441 21.4351C22.6007 21.2984 22.6299 21.1519 22.6299 21.0039C22.6299 20.8559 22.6007 20.7093 22.5441 20.5726C22.4875 20.4359 22.4044 20.3116 22.2998 20.207L22.2961 20.2042ZM4.62512 10.5001C4.62512 9.23926 4.999 8.00672 5.6995 6.95836C6.39999 5.90999 7.39563 5.09289 8.56051 4.61038C9.72539 4.12788 11.0072 4.00163 12.2438 4.24761C13.4804 4.49359 14.6164 5.10075 15.5079 5.99231C16.3995 6.88387 17.0066 8.01979 17.2526 9.25642C17.4986 10.493 17.3724 11.7748 16.8898 12.9397C16.4073 14.1046 15.5902 15.1002 14.5419 15.8007C13.4935 16.5012 12.261 16.8751 11.0001 16.8751C9.30989 16.8734 7.6894 16.2012 6.49423 15.006C5.29906 13.8108 4.62685 12.1903 4.62512 10.5001Z" fill="#999999"/>
</svg>
